<svg xmlns="http://www.w3.org/2000/svg" width="255.854" height="255.824" viewBox="0 0 255.854 255.824">
  <g id="Group_184" data-name="Group 184" transform="translate(-312 -5582)">
    <ellipse id="Ellipse_88" data-name="Ellipse 88" cx="127.917" cy="127.912" rx="127.917" ry="127.912" transform="translate(312 5582)" fill="#0d1b4c"/>
    <path id="Path_167" data-name="Path 167" d="M1248.752,3988.719s-31.664,38.518-5.228,75.854,61.56,29.014,61.56,29.014,1.215-28.937-15.049-59.311S1248.752,3988.719,1248.752,3988.719Z" transform="translate(-737.251 1615.014)" fill="#fdf3f3"/>
    <path id="Path_170" data-name="Path 170" d="M72.239,98.484A26.246,26.246,0,0,0,98.485,72.238V34.744A26.246,26.246,0,0,0,72.239,8.5H34.745A26.246,26.246,0,0,0,8.5,34.744V53.491a3.749,3.749,0,0,1-7.5,0V34.744A33.745,33.745,0,0,1,34.745,1H72.239a33.745,33.745,0,0,1,33.745,33.744V72.238a33.745,33.745,0,0,1-33.745,33.744H53.492a3.749,3.749,0,1,1,0-7.5Z" transform="translate(370.758 5662.258)" fill="#ff8387" fill-rule="evenodd"/>
    <path id="Path_171" data-name="Path 171" d="M10,22.5a22.5,22.5,0,1,1,22.5,22.5A22.5,22.5,0,0,1,10,22.5Z" transform="translate(354.259 5730.749)" fill="#fdf3f3"/>
  </g>
</svg>
